{
	"asset":{
		"generator":"Khronos glTF Blender I/O v3.6.28",
		"version":"2.0"
	},
	"extensionsUsed":[
		"KHR_lights_punctual"
	],
	"extensionsRequired":[
		"KHR_lights_punctual"
	],
	"extensions":{
		"KHR_lights_punctual":{
			"lights":[
				{
					"color":[
						1,
						1,
						1
					],
					"intensity":543.5141306588226,
					"type":"point",
					"name":"Point"
				},
				{
					"color":[
						1,
						0,
						0.0008594142273068428
					],
					"intensity":543.5141306588226,
					"type":"point",
					"name":"Point.001"
				},
				{
					"color":[
						0,
						1,
						0.9752130508422852
					],
					"intensity":543.5141306588226,
					"type":"point",
					"name":"Point.002"
				},
				{
					"color":[
						1,
						1,
						1
					],
					"intensity":543.5141306588226,
					"type":"point",
					"name":"Point.003"
				},
				{
					"color":[
						1,
						0.9187621474266052,
						0
					],
					"intensity":543.5141306588226,
					"type":"point",
					"name":"Point.004"
				},
				{
					"color":[
						0.0003290984022896737,
						0,
						1
					],
					"intensity":543.5141306588226,
					"type":"point",
					"name":"Point.005"
				},
				{
					"color":[
						1,
						0,
						0.8441312909126282
					],
					"intensity":543.5141306588226,
					"type":"point",
					"name":"Point.006"
				},
				{
					"color":[
						0.0038449373096227646,
						1,
						0
					],
					"intensity":543.5141306588226,
					"type":"point",
					"name":"Point.007"
				},
				{
					"color":[
						0.2565772235393524,
						1,
						0.8877835273742676
					],
					"intensity":543.5141306588226,
					"type":"point",
					"name":"Point.008"
				},
				{
					"color":[
						1,
						0.8719202280044556,
						0.6068586707115173
					],
					"intensity":543.5141306588226,
					"type":"point",
					"name":"Point.009"
				},
				{
					"color":[
						0.8999999761581421,
						0.8142856955528259,
						0.6714285612106323
					],
					"intensity":34150,
					"type":"directional",
					"name":"Sun"
				},
				{
					"color":[
						1,
						1,
						1
					],
					"intensity":54351.41306588226,
					"type":"point",
					"name":"Light.001"
				}
			]
		}
	},
	"scene":0,
	"scenes":[
		{
			"name":"Scene",
			"nodes":[
				0,
				1,
				2,
				3,
				4,
				5,
				6,
				7,
				8,
				9,
				10,
				11,
				12,
				13,
				14
			]
		}
	],
	"nodes":[
		{
			"mesh":0,
			"name":"Mesh_0",
			"scale":[
				0.00800000037997961,
				0.00800000037997961,
				0.00800000037997961
			]
		},
		{
			"camera":0,
			"name":"Camera.001",
			"rotation":[
				-0.004057886078953743,
				-0.7070951461791992,
				0.004057995043694973,
				0.7070951461791992
			],
			"translation":[
				-7,
				1.5,
				0
			]
		},
		{
			"extensions":{
				"KHR_lights_punctual":{
					"light":0
				}
			},
			"name":"Point",
			"rotation":[
				-0.7071068286895752,
				0,
				0,
				0.7071068286895752
			],
			"translation":[
				0,
				0.10000000149011612,
				-1.5
			]
		},
		{
			"extensions":{
				"KHR_lights_punctual":{
					"light":1
				}
			},
			"name":"Point.001",
			"rotation":[
				-0.7071068286895752,
				0,
				0,
				0.7071068286895752
			],
			"translation":[
				3,
				0.10000000149011612,
				-1.5
			]
		},
		{
			"extensions":{
				"KHR_lights_punctual":{
					"light":2
				}
			},
			"name":"Point.002",
			"rotation":[
				-0.7071068286895752,
				0,
				0,
				0.7071068286895752
			],
			"translation":[
				6,
				0.10000000149011612,
				-1.5
			]
		},
		{
			"extensions":{
				"KHR_lights_punctual":{
					"light":3
				}
			},
			"name":"Point.003",
			"rotation":[
				-0.7071068286895752,
				0,
				0,
				0.7071068286895752
			],
			"translation":[
				-3,
				0.10000000149011612,
				-1.5
			]
		},
		{
			"extensions":{
				"KHR_lights_punctual":{
					"light":4
				}
			},
			"name":"Point.004",
			"rotation":[
				-0.7071068286895752,
				0,
				0,
				0.7071068286895752
			],
			"translation":[
				-6,
				0.10000000149011612,
				-1.5
			]
		},
		{
			"extensions":{
				"KHR_lights_punctual":{
					"light":5
				}
			},
			"name":"Point.005",
			"rotation":[
				-0.7071068286895752,
				0,
				0,
				0.7071068286895752
			],
			"translation":[
				-6,
				0.10000000149011612,
				1
			]
		},
		{
			"extensions":{
				"KHR_lights_punctual":{
					"light":6
				}
			},
			"name":"Point.006",
			"rotation":[
				-0.7071068286895752,
				0,
				0,
				0.7071068286895752
			],
			"translation":[
				-3,
				0.10000000149011612,
				1
			]
		},
		{
			"extensions":{
				"KHR_lights_punctual":{
					"light":7
				}
			},
			"name":"Point.007",
			"rotation":[
				-0.7071068286895752,
				0,
				0,
				0.7071068286895752
			],
			"translation":[
				6,
				0.10000000149011612,
				1
			]
		},
		{
			"extensions":{
				"KHR_lights_punctual":{
					"light":8
				}
			},
			"name":"Point.008",
			"rotation":[
				-0.7071068286895752,
				0,
				0,
				0.7071068286895752
			],
			"translation":[
				3,
				0.10000000149011612,
				1
			]
		},
		{
			"extensions":{
				"KHR_lights_punctual":{
					"light":9
				}
			},
			"name":"Point.009",
			"rotation":[
				-0.7071068286895752,
				0,
				0,
				0.7071068286895752
			],
			"translation":[
				0,
				0.10000000149011612,
				1
			]
		},
		{
			"extensions":{
				"KHR_lights_punctual":{
					"light":10
				}
			},
			"name":"Sun",
			"rotation":[
				-0.5322508811950684,
				0.12441691756248474,
				-0.12400243431329727,
				0.8281623721122742
			],
			"translation":[
				0,
				10,
				0
			]
		},
		{
			"extensions":{
				"KHR_lights_punctual":{
					"light":11
				}
			},
			"name":"Light",
			"rotation":[
				-0.28416627645492554,
				0.7269423007965088,
				0.34203392267227173,
				0.5232754945755005
			],
			"translation":[
				4.076245307922363,
				5.903861999511719,
				-1.0054539442062378
			]
		},
		{
			"camera":1,
			"name":"Camera",
			"rotation":[
				-0.20997293293476105,
				0.38578000664711,
				0.09062844514846802,
				0.8937962055206299
			],
			"translation":[
				7.358891487121582,
				4.958309173583984,
				6.925790786743164
			]
		}
	],
	"cameras":[
		{
			"name":"Camera.001",
			"perspective":{
				"aspectRatio":1.7777777777777777,
				"yfov":0.39959651231765747,
				"zfar":1000,
				"znear":0.10000000149011612
			},
			"type":"perspective"
		},
		{
			"name":"Camera.002",
			"perspective":{
				"aspectRatio":1.7777777777777777,
				"yfov":0.39959651231765747,
				"zfar":100,
				"znear":0.10000000149011612
			},
			"type":"perspective"
		}
	],
	"materials":[
		{
			"alphaCutoff":0.5,
			"alphaMode":"MASK",
			"doubleSided":true,
			"name":"Material_0",
			"normalTexture":{
				"index":0
			},
			"pbrMetallicRoughness":{
				"baseColorFactor":[
					0.5879999995231628,
					0.5879999995231628,
					0.5879999995231628,
					1
				],
				"baseColorTexture":{
					"index":1
				},
				"metallicRoughnessTexture":{
					"index":2
				}
			}
		},
		{
			"alphaCutoff":0.5,
			"alphaMode":"MASK",
			"doubleSided":true,
			"name":"Material_3",
			"normalTexture":{
				"index":3
			},
			"pbrMetallicRoughness":{
				"baseColorFactor":[
					0.5879999995231628,
					0.5879999995231628,
					0.5879999995231628,
					1
				],
				"baseColorTexture":{
					"index":4
				},
				"metallicRoughnessTexture":{
					"index":5
				}
			}
		},
		{
			"name":"Material_1",
			"normalTexture":{
				"index":6
			},
			"pbrMetallicRoughness":{
				"baseColorFactor":[
					0.5879999995231628,
					0.5879999995231628,
					0.5879999995231628,
					1
				],
				"baseColorTexture":{
					"index":7
				},
				"metallicRoughnessTexture":{
					"index":8
				}
			}
		},
		{
			"name":"Material_4",
			"normalTexture":{
				"index":9
			},
			"pbrMetallicRoughness":{
				"baseColorFactor":[
					0.5879999995231628,
					0.5879999995231628,
					0.5879999995231628,
					1
				],
				"baseColorTexture":{
					"index":10
				},
				"metallicRoughnessTexture":{
					"index":11
				}
			}
		},
		{
			"name":"Material_5",
			"normalTexture":{
				"index":12
			},
			"pbrMetallicRoughness":{
				"baseColorFactor":[
					0.5879999995231628,
					0.5879999995231628,
					0.5879999995231628,
					1
				],
				"baseColorTexture":{
					"index":13
				},
				"metallicRoughnessTexture":{
					"index":14
				}
			}
		},
		{
			"name":"Material_6",
			"normalTexture":{
				"index":15
			},
			"pbrMetallicRoughness":{
				"baseColorFactor":[
					0.5879999995231628,
					0.5879999995231628,
					0.5879999995231628,
					1
				],
				"baseColorTexture":{
					"index":16
				},
				"metallicRoughnessTexture":{
					"index":17
				}
			}
		},
		{
			"name":"Material_7",
			"normalTexture":{
				"index":18
			},
			"pbrMetallicRoughness":{
				"baseColorFactor":[
					0.5879999995231628,
					0.5879999995231628,
					0.5879999995231628,
					1
				],
				"baseColorTexture":{
					"index":19
				},
				"metallicRoughnessTexture":{
					"index":20
				}
			}
		},
		{
			"name":"Material_8",
			"normalTexture":{
				"index":21
			},
			"pbrMetallicRoughness":{
				"baseColorFactor":[
					0.5879999995231628,
					0.5879999995231628,
					0.5879999995231628,
					1
				],
				"baseColorTexture":{
					"index":22
				},
				"metallicRoughnessTexture":{
					"index":23
				}
			}
		},
		{
			"name":"Material_9",
			"normalTexture":{
				"index":24
			},
			"pbrMetallicRoughness":{
				"baseColorFactor":[
					0.5879999995231628,
					0.5879999995231628,
					0.5879999995231628,
					1
				],
				"baseColorTexture":{
					"index":25
				},
				"metallicRoughnessTexture":{
					"index":26
				}
			}
		},
		{
			"name":"Material_10",
			"normalTexture":{
				"index":27
			},
			"pbrMetallicRoughness":{
				"baseColorFactor":[
					0.5879999995231628,
					0.5879999995231628,
					0.5879999995231628,
					1
				],
				"baseColorTexture":{
					"index":28
				},
				"metallicRoughnessTexture":{
					"index":29
				}
			}
		},
		{
			"name":"Material_11",
			"normalTexture":{
				"index":30
			},
			"pbrMetallicRoughness":{
				"baseColorFactor":[
					0.5879999995231628,
					0.5879999995231628,
					0.5879999995231628,
					1
				],
				"baseColorTexture":{
					"index":31
				},
				"metallicRoughnessTexture":{
					"index":32
				}
			}
		},
		{
			"name":"Material_12",
			"normalTexture":{
				"index":33
			},
			"pbrMetallicRoughness":{
				"baseColorFactor":[
					0.5879999995231628,
					0.5879999995231628,
					0.5879999995231628,
					1
				],
				"baseColorTexture":{
					"index":34
				},
				"metallicRoughnessTexture":{
					"index":35
				}
			}
		},
		{
			"name":"Material_2",
			"pbrMetallicRoughness":{
				"baseColorFactor":[
					0.5879999995231628,
					0.5879999995231628,
					0.5879999995231628,
					1
				],
				"baseColorTexture":{
					"index":36
				},
				"metallicFactor":0
			}
		},
		{
			"name":"Material_13",
			"normalTexture":{
				"index":37
			},
			"pbrMetallicRoughness":{
				"baseColorFactor":[
					0.5879999995231628,
					0.5879999995231628,
					0.5879999995231628,
					1
				],
				"baseColorTexture":{
					"index":38
				},
				"metallicRoughnessTexture":{
					"index":39
				}
			}
		},
		{
			"name":"Material_14",
			"normalTexture":{
				"index":40
			},
			"pbrMetallicRoughness":{
				"baseColorFactor":[
					0.5879999995231628,
					0.5879999995231628,
					0.5879999995231628,
					1
				],
				"baseColorTexture":{
					"index":41
				},
				"metallicRoughnessTexture":{
					"index":42
				}
			}
		},
		{
			"name":"Material_15",
			"normalTexture":{
				"index":43
			},
			"pbrMetallicRoughness":{
				"baseColorFactor":[
					0.5879999995231628,
					0.5879999995231628,
					0.5879999995231628,
					1
				],
				"baseColorTexture":{
					"index":44
				},
				"metallicRoughnessTexture":{
					"index":45
				}
			}
		},
		{
			"name":"Material_16",
			"normalTexture":{
				"index":46
			},
			"pbrMetallicRoughness":{
				"baseColorFactor":[
					0.5879999995231628,
					0.5879999995231628,
					0.5879999995231628,
					1
				],
				"baseColorTexture":{
					"index":47
				},
				"metallicRoughnessTexture":{
					"index":48
				}
			}
		},
		{
			"name":"Material_17",
			"normalTexture":{
				"index":49
			},
			"pbrMetallicRoughness":{
				"baseColorFactor":[
					0.5879999995231628,
					0.5879999995231628,
					0.5879999995231628,
					1
				],
				"baseColorTexture":{
					"index":50
				},
				"metallicRoughnessTexture":{
					"index":51
				}
			}
		},
		{
			"name":"Material_18",
			"normalTexture":{
				"index":52
			},
			"pbrMetallicRoughness":{
				"baseColorFactor":[
					0.5879999995231628,
					0.5879999995231628,
					0.5879999995231628,
					1
				],
				"baseColorTexture":{
					"index":53
				},
				"metallicRoughnessTexture":{
					"index":54
				}
			}
		},
		{
			"name":"Material_19",
			"normalTexture":{
				"index":55
			},
			"pbrMetallicRoughness":{
				"baseColorFactor":[
					0.5879999995231628,
					0.5879999995231628,
					0.5879999995231628,
					1
				],
				"baseColorTexture":{
					"index":56
				},
				"metallicRoughnessTexture":{
					"index":57
				}
			}
		},
		{
			"alphaCutoff":0.5,
			"alphaMode":"MASK",
			"doubleSided":true,
			"name":"Material_20",
			"normalTexture":{
				"index":58
			},
			"pbrMetallicRoughness":{
				"baseColorFactor":[
					0.5879999995231628,
					0.5879999995231628,
					0.5879999995231628,
					1
				],
				"baseColorTexture":{
					"index":59
				},
				"metallicRoughnessTexture":{
					"index":60
				}
			}
		},
		{
			"name":"Material_21",
			"normalTexture":{
				"index":61
			},
			"pbrMetallicRoughness":{
				"baseColorFactor":[
					0.5879999995231628,
					0.5879999995231628,
					0.5879999995231628,
					1
				],
				"baseColorTexture":{
					"index":62
				},
				"metallicRoughnessTexture":{
					"index":63
				}
			}
		},
		{
			"name":"Material_22",
			"normalTexture":{
				"index":64
			},
			"pbrMetallicRoughness":{
				"baseColorFactor":[
					0.5879999995231628,
					0.5879999995231628,
					0.5879999995231628,
					1
				],
				"baseColorTexture":{
					"index":65
				},
				"metallicRoughnessTexture":{
					"index":66
				}
			}
		},
		{
			"name":"Material_23",
			"normalTexture":{
				"index":67
			},
			"pbrMetallicRoughness":{
				"baseColorFactor":[
					0.5879999995231628,
					0.5879999995231628,
					0.5879999995231628,
					1
				],
				"baseColorTexture":{
					"index":68
				},
				"metallicRoughnessTexture":{
					"index":69
				}
			}
		},
		{
			"name":"Material_24",
			"normalTexture":{
				"index":70
			},
			"pbrMetallicRoughness":{
				"baseColorFactor":[
					0.5879999995231628,
					0.5879999995231628,
					0.5879999995231628,
					1
				],
				"baseColorTexture":{
					"index":71
				},
				"metallicRoughnessTexture":{
					"index":72
				}
			}
		}
	],
	"meshes":[
		{
			"name":"Mesh_0",
			"primitives":[
				{
					"attributes":{
						"POSITION":0,
						"NORMAL":1,
						"TEXCOORD_0":2,
						"TANGENT":3
					},
					"indices":4,
					"material":0
				},
				{
					"attributes":{
						"POSITION":5,
						"NORMAL":6,
						"TEXCOORD_0":7,
						"TANGENT":8
					},
					"indices":9,
					"material":1
				},
				{
					"attributes":{
						"POSITION":10,
						"NORMAL":11,
						"TEXCOORD_0":12,
						"TANGENT":13
					},
					"indices":14,
					"material":2
				},
				{
					"attributes":{
						"POSITION":15,
						"NORMAL":16,
						"TEXCOORD_0":17,
						"TANGENT":18
					},
					"indices":19,
					"material":3
				},
				{
					"attributes":{
						"POSITION":20,
						"NORMAL":21,
						"TEXCOORD_0":22,
						"TANGENT":23
					},
					"indices":24,
					"material":4
				},
				{
					"attributes":{
						"POSITION":25,
						"NORMAL":26,
						"TEXCOORD_0":27,
						"TANGENT":28
					},
					"indices":29,
					"material":5
				},
				{
					"attributes":{
						"POSITION":30,
						"NORMAL":31,
						"TEXCOORD_0":32,
						"TANGENT":33
					},
					"indices":34,
					"material":6
				},
				{
					"attributes":{
						"POSITION":35,
						"NORMAL":36,
						"TEXCOORD_0":37,
						"TANGENT":38
					},
					"indices":39,
					"material":7
				},
				{
					"attributes":{
						"POSITION":40,
						"NORMAL":41,
						"TEXCOORD_0":42,
						"TANGENT":43
					},
					"indices":44,
					"material":8
				},
				{
					"attributes":{
						"POSITION":45,
						"NORMAL":46,
						"TEXCOORD_0":47,
						"TANGENT":48
					},
					"indices":49,
					"material":9
				},
				{
					"attributes":{
						"POSITION":50,
						"NORMAL":51,
						"TEXCOORD_0":52,
						"TANGENT":53
					},
					"indices":54,
					"material":10
				},
				{
					"attributes":{
						"POSITION":55,
						"NORMAL":56,
						"TEXCOORD_0":57,
						"TANGENT":58
					},
					"indices":59,
					"material":11
				},
				{
					"attributes":{
						"POSITION":60,
						"NORMAL":61,
						"TEXCOORD_0":62,
						"TANGENT":63
					},
					"indices":64,
					"material":12
				},
				{
					"attributes":{
						"POSITION":65,
						"NORMAL":66,
						"TEXCOORD_0":67,
						"TANGENT":68
					},
					"indices":69,
					"material":13
				},
				{
					"attributes":{
						"POSITION":70,
						"NORMAL":71,
						"TEXCOORD_0":72,
						"TANGENT":73
					},
					"indices":74,
					"material":14
				},
				{
					"attributes":{
						"POSITION":75,
						"NORMAL":76,
						"TEXCOORD_0":77,
						"TANGENT":78
					},
					"indices":79,
					"material":15
				},
				{
					"attributes":{
						"POSITION":80,
						"NORMAL":81,
						"TEXCOORD_0":82,
						"TANGENT":83
					},
					"indices":84,
					"material":16
				},
				{
					"attributes":{
						"POSITION":85,
						"NORMAL":86,
						"TEXCOORD_0":87,
						"TANGENT":88
					},
					"indices":89,
					"material":17
				},
				{
					"attributes":{
						"POSITION":90,
						"NORMAL":91,
						"TEXCOORD_0":92,
						"TANGENT":93
					},
					"indices":94,
					"material":18
				},
				{
					"attributes":{
						"POSITION":95,
						"NORMAL":96,
						"TEXCOORD_0":97,
						"TANGENT":98
					},
					"indices":89,
					"material":19
				},
				{
					"attributes":{
						"POSITION":99,
						"NORMAL":100,
						"TEXCOORD_0":101,
						"TANGENT":102
					},
					"indices":103,
					"material":20
				},
				{
					"attributes":{
						"POSITION":104,
						"NORMAL":105,
						"TEXCOORD_0":106,
						"TANGENT":107
					},
					"indices":108,
					"material":21
				},
				{
					"attributes":{
						"POSITION":109,
						"NORMAL":110,
						"TEXCOORD_0":111,
						"TANGENT":112
					},
					"indices":113,
					"material":22
				},
				{
					"attributes":{
						"POSITION":114,
						"NORMAL":115,
						"TEXCOORD_0":116,
						"TANGENT":117
					},
					"indices":118,
					"material":23
				},
				{
					"attributes":{
						"POSITION":119,
						"NORMAL":120,
						"TEXCOORD_0":121,
						"TANGENT":122
					},
					"indices":123,
					"material":24
				}
			]
		}
	],
	"textures":[
		{
			"sampler":0,
			"source":0
		},
		{
			"sampler":0,
			"source":1
		},
		{
			"sampler":0,
			"source":2
		},
		{
			"sampler":0,
			"source":3
		},
		{
			"sampler":0,
			"source":4
		},
		{
			"sampler":0,
			"source":5
		},
		{
			"sampler":0,
			"source":6
		},
		{
			"sampler":0,
			"source":7
		},
		{
			"sampler":0,
			"source":8
		},
		{
			"sampler":0,
			"source":9
		},
		{
			"sampler":0,
			"source":10
		},
		{
			"sampler":0,
			"source":11
		},
		{
			"sampler":0,
			"source":12
		},
		{
			"sampler":0,
			"source":13
		},
		{
			"sampler":0,
			"source":14
		},
		{
			"sampler":0,
			"source":15
		},
		{
			"sampler":0,
			"source":16
		},
		{
			"sampler":0,
			"source":17
		},
		{
			"sampler":0,
			"source":18
		},
		{
			"sampler":0,
			"source":19
		},
		{
			"sampler":0,
			"source":20
		},
		{
			"sampler":0,
			"source":21
		},
		{
			"sampler":0,
			"source":22
		},
		{
			"sampler":0,
			"source":23
		},
		{
			"sampler":0,
			"source":24
		},
		{
			"sampler":0,
			"source":25
		},
		{
			"sampler":0,
			"source":26
		},
		{
			"sampler":0,
			"source":27
		},
		{
			"sampler":0,
			"source":28
		},
		{
			"sampler":0,
			"source":29
		},
		{
			"sampler":0,
			"source":30
		},
		{
			"sampler":0,
			"source":31
		},
		{
			"sampler":0,
			"source":32
		},
		{
			"sampler":0,
			"source":33
		},
		{
			"sampler":0,
			"source":34
		},
		{
			"sampler":0,
			"source":35
		},
		{
			"sampler":0,
			"source":36
		},
		{
			"sampler":0,
			"source":37
		},
		{
			"sampler":0,
			"source":38
		},
		{
			"sampler":0,
			"source":39
		},
		{
			"sampler":0,
			"source":40
		},
		{
			"sampler":0,
			"source":41
		},
		{
			"sampler":0,
			"source":42
		},
		{
			"sampler":0,
			"source":43
		},
		{
			"sampler":0,
			"source":44
		},
		{
			"sampler":0,
			"source":42
		},
		{
			"sampler":0,
			"source":45
		},
		{
			"sampler":0,
			"source":46
		},
		{
			"sampler":0,
			"source":42
		},
		{
			"sampler":0,
			"source":47
		},
		{
			"sampler":0,
			"source":48
		},
		{
			"sampler":0,
			"source":49
		},
		{
			"sampler":0,
			"source":50
		},
		{
			"sampler":0,
			"source":51
		},
		{
			"sampler":0,
			"source":49
		},
		{
			"sampler":0,
			"source":52
		},
		{
			"sampler":0,
			"source":53
		},
		{
			"sampler":0,
			"source":49
		},
		{
			"sampler":0,
			"source":54
		},
		{
			"sampler":0,
			"source":55
		},
		{
			"sampler":0,
			"source":56
		},
		{
			"sampler":0,
			"source":57
		},
		{
			"sampler":0,
			"source":58
		},
		{
			"sampler":0,
			"source":59
		},
		{
			"sampler":0,
			"source":60
		},
		{
			"sampler":0,
			"source":61
		},
		{
			"sampler":0,
			"source":62
		},
		{
			"sampler":0,
			"source":63
		},
		{
			"sampler":0,
			"source":64
		},
		{
			"sampler":0,
			"source":65
		},
		{
			"sampler":0,
			"source":66
		},
		{
			"sampler":0,
			"source":67
		},
		{
			"sampler":0,
			"source":68
		}
	],
	"images":[
		{
			"mimeType":"image/jpeg",
			"name":"8773302468495022225",
			"uri":"textures/8773302468495022225.jpg"
		},
		{
			"mimeType":"image/png",
			"name":"5061699253647017043",
			"uri":"textures/5061699253647017043.png"
		},
		{
			"mimeType":"image/jpeg",
			"name":"11872827283454512094",
			"uri":"textures/11872827283454512094.jpg"
		},
		{
			"mimeType":"image/jpeg",
			"name":"12501374198249454378",
			"uri":"textures/12501374198249454378.jpg"
		},
		{
			"mimeType":"image/png",
			"name":"8006627369776289000",
			"uri":"textures/8006627369776289000.png"
		},
		{
			"mimeType":"image/jpeg",
			"name":"715093869573992647",
			"uri":"textures/715093869573992647.jpg"
		},
		{
			"mimeType":"image/jpeg",
			"name":"4477655471536070370",
			"uri":"textures/4477655471536070370.jpg"
		},
		{
			"mimeType":"image/jpeg",
			"name":"7268504077753552595",
			"uri":"textures/7268504077753552595.jpg"
		},
		{
			"mimeType":"image/jpeg",
			"name":"8503262930880235456",
			"uri":"textures/8503262930880235456.jpg"
		},
		{
			"mimeType":"image/jpeg",
			"name":"13982482287905699490",
			"uri":"textures/13982482287905699490.jpg"
		},
		{
			"mimeType":"image/jpeg",
			"name":"8750083169368950601",
			"uri":"textures/8750083169368950601.jpg"
		},
		{
			"mimeType":"image/jpeg",
			"name":"16885566240357350108",
			"uri":"textures/16885566240357350108.jpg"
		},
		{
			"mimeType":"image/jpeg",
			"name":"16299174074766089871",
			"uri":"textures/16299174074766089871.jpg"
		},
		{
			"mimeType":"image/jpeg",
			"name":"5792855332885324923",
			"uri":"textures/5792855332885324923.jpg"
		},
		{
			"mimeType":"image/jpeg",
			"name":"11968150294050148237",
			"uri":"textures/11968150294050148237.jpg"
		},
		{
			"mimeType":"image/jpeg",
			"name":"2051777328469649772",
			"uri":"textures/2051777328469649772.jpg"
		},
		{
			"mimeType":"image/jpeg",
			"name":"14650633544276105767",
			"uri":"textures/14650633544276105767.jpg"
		},
		{
			"mimeType":"image/jpeg",
			"name":"4871783166746854860",
			"uri":"textures/4871783166746854860.jpg"
		},
		{
			"mimeType":"image/jpeg",
			"name":"10388182081421875623",
			"uri":"textures/10388182081421875623.jpg"
		},
		{
			"mimeType":"image/jpeg",
			"name":"15295713303328085182",
			"uri":"textures/15295713303328085182.jpg"
		},
		{
			"mimeType":"image/jpeg",
			"name":"9916269861720640319",
			"uri":"textures/9916269861720640319.jpg"
		},
		{
			"mimeType":"image/jpeg",
			"name":"15722799267630235092",
			"uri":"textures/15722799267630235092.jpg"
		},
		{
			"mimeType":"image/jpeg",
			"name":"6047387724914829168",
			"uri":"textures/6047387724914829168.jpg"
		},
		{
			"mimeType":"image/jpeg",
			"name":"8051790464816141987",
			"uri":"textures/8051790464816141987.jpg"
		},
		{
			"mimeType":"image/jpeg",
			"name":"14267839433702832875",
			"uri":"textures/14267839433702832875.jpg"
		},
		{
			"mimeType":"image/jpeg",
			"name":"5823059166183034438",
			"uri":"textures/5823059166183034438.jpg"
		},
		{
			"mimeType":"image/jpeg",
			"name":"13824894030729245199",
			"uri":"textures/13824894030729245199.jpg"
		},
		{
			"mimeType":"image/jpeg",
			"name":"6667038893015345571",
			"uri":"textures/6667038893015345571.jpg"
		},
		{
			"mimeType":"image/jpeg",
			"name":"7441062115984513793",
			"uri":"textures/7441062115984513793.jpg"
		},
		{
			"mimeType":"image/jpeg",
			"name":"8114461559286000061",
			"uri":"textures/8114461559286000061.jpg"
		},
		{
			"mimeType":"image/jpeg",
			"name":"3628158980083700836",
			"uri":"textures/3628158980083700836.jpg"
		},
		{
			"mimeType":"image/jpeg",
			"name":"11490520546946913238",
			"uri":"textures/11490520546946913238.jpg"
		},
		{
			"mimeType":"image/jpeg",
			"name":"3455394979645218238",
			"uri":"textures/3455394979645218238.jpg"
		},
		{
			"mimeType":"image/jpeg",
			"name":"7645212358685992005",
			"uri":"textures/7645212358685992005.jpg"
		},
		{
			"mimeType":"image/jpeg",
			"name":"6151467286084645207",
			"uri":"textures/6151467286084645207.jpg"
		},
		{
			"mimeType":"image/jpeg",
			"name":"8783994986360286082",
			"uri":"textures/8783994986360286082.jpg"
		},
		{
			"mimeType":"image/jpeg",
			"name":"white",
			"uri":"textures/white.jpg"
		},
		{
			"mimeType":"image/jpeg",
			"name":"2299742237651021498",
			"uri":"textures/2299742237651021498.jpg"
		},
		{
			"mimeType":"image/jpeg",
			"name":"4975155472559461469",
			"uri":"textures/4975155472559461469.jpg"
		},
		{
			"mimeType":"image/jpeg",
			"name":"3371964815757888145",
			"uri":"textures/3371964815757888145.jpg"
		},
		{
			"mimeType":"image/jpeg",
			"name":"7056944414013900257",
			"uri":"textures/7056944414013900257.jpg"
		},
		{
			"mimeType":"image/jpeg",
			"name":"4675343432951571524",
			"uri":"textures/4675343432951571524.jpg"
		},
		{
			"mimeType":"image/jpeg",
			"name":"7815564343179553343",
			"uri":"textures/7815564343179553343.jpg"
		},
		{
			"mimeType":"image/jpeg",
			"name":"2374361008830720677",
			"uri":"textures/2374361008830720677.jpg"
		},
		{
			"mimeType":"image/jpeg",
			"name":"2775690330959970771",
			"uri":"textures/2775690330959970771.jpg"
		},
		{
			"mimeType":"image/jpeg",
			"name":"332936164838540657",
			"uri":"textures/332936164838540657.jpg"
		},
		{
			"mimeType":"image/jpeg",
			"name":"2185409758123873465",
			"uri":"textures/2185409758123873465.jpg"
		},
		{
			"mimeType":"image/jpeg",
			"name":"6593109234861095314",
			"uri":"textures/6593109234861095314.jpg"
		},
		{
			"mimeType":"image/jpeg",
			"name":"17876391417123941155",
			"uri":"textures/17876391417123941155.jpg"
		},
		{
			"mimeType":"image/jpeg",
			"name":"466164707995436622",
			"uri":"textures/466164707995436622.jpg"
		},
		{
			"mimeType":"image/jpeg",
			"name":"4601176305987539675",
			"uri":"textures/4601176305987539675.jpg"
		},
		{
			"mimeType":"image/jpeg",
			"name":"11474523244911310074",
			"uri":"textures/11474523244911310074.jpg"
		},
		{
			"mimeType":"image/jpeg",
			"name":"4910669866631290573",
			"uri":"textures/4910669866631290573.jpg"
		},
		{
			"mimeType":"image/jpeg",
			"name":"9288698199695299068",
			"uri":"textures/9288698199695299068.jpg"
		},
		{
			"mimeType":"image/jpeg",
			"name":"14170708867020035030",
			"uri":"textures/14170708867020035030.jpg"
		},
		{
			"mimeType":"image/png",
			"name":"16275776544635328252",
			"uri":"textures/16275776544635328252.png"
		},
		{
			"mimeType":"image/jpeg",
			"name":"1219024358953944284",
			"uri":"textures/1219024358953944284.jpg"
		},
		{
			"mimeType":"image/jpeg",
			"name":"3827035219084910048",
			"uri":"textures/3827035219084910048.jpg"
		},
		{
			"mimeType":"image/jpeg",
			"name":"755318871556304029",
			"uri":"textures/755318871556304029.jpg"
		},
		{
			"mimeType":"image/jpeg",
			"name":"2411100444841994089",
			"uri":"textures/2411100444841994089.jpg"
		},
		{
			"mimeType":"image/jpeg",
			"name":"10381718147657362067",
			"uri":"textures/10381718147657362067.jpg"
		},
		{
			"mimeType":"image/jpeg",
			"name":"8481240838833932244",
			"uri":"textures/8481240838833932244.jpg"
		},
		{
			"mimeType":"image/jpeg",
			"name":"17556969131407844942",
			"uri":"textures/17556969131407844942.jpg"
		},
		{
			"mimeType":"image/jpeg",
			"name":"759203620573749278",
			"uri":"textures/759203620573749278.jpg"
		},
		{
			"mimeType":"image/jpeg",
			"name":"6772804448157695701",
			"uri":"textures/6772804448157695701.jpg"
		},
		{
			"mimeType":"image/jpeg",
			"name":"13196865903111448057",
			"uri":"textures/13196865903111448057.jpg"
		},
		{
			"mimeType":"image/jpeg",
			"name":"14118779221266351425",
			"uri":"textures/14118779221266351425.jpg"
		},
		{
			"mimeType":"image/jpeg",
			"name":"2969916736137545357",
			"uri":"textures/2969916736137545357.jpg"
		},
		{
			"mimeType":"image/jpeg",
			"name":"8747919177698443163",
			"uri":"textures/8747919177698443163.jpg"
		}
	],
	"accessors":[
		{
			"bufferView":0,
			"componentType":5126,
			"count":24162,
			"max":[
				551.2263793945312,
				225.1020965576172,
				266.4422912597656
			],
			"min":[
				-680.2642211914062,
				-28.04960060119629,
				-341.1361999511719
			],
			"type":"VEC3"
		},
		{
			"bufferView":1,
			"componentType":5126,
			"count":24162,
			"type":"VEC3"
		},
		{
			"bufferView":2,
			"componentType":5126,
			"count":24162,
			"type":"VEC2"
		},
		{
			"bufferView":3,
			"componentType":5126,
			"count":24162,
			"type":"VEC4"
		},
		{
			"bufferView":4,
			"componentType":5123,
			"count":94308,
			"type":"SCALAR"
		},
		{
			"bufferView":5,
			"componentType":5126,
			"count":3932,
			"max":[
				861.8858032226562,
				73.12359619140625,
				187.85159301757812
			],
			"min":[
				-992.9603881835938,
				42.31909942626953,
				-261.83648681640625
			],
			"type":"VEC3"
		},
		{
			"bufferView":6,
			"componentType":5126,
			"count":3932,
			"type":"VEC3"
		},
		{
			"bufferView":7,
			"componentType":5126,
			"count":3932,
			"type":"VEC2"
		},
		{
			"bufferView":8,
			"componentType":5126,
			"count":3932,
			"type":"VEC4"
		},
		{
			"bufferView":9,
			"componentType":5123,
			"count":10416,
			"type":"SCALAR"
		},
		{
			"bufferView":10,
			"componentType":5126,
			"count":9848,
			"max":[
				859.2954711914062,
				56.199501037597656,
				179.31080627441406
			],
			"min":[
				-990.7388916015625,
				-4.030700206756592,
				-251.64309692382812
			],
			"type":"VEC3"
		},
		{
			"bufferView":11,
			"componentType":5126,
			"count":9848,
			"type":"VEC3"
		},
		{
			"bufferView":12,
			"componentType":5126,
			"count":9848,
			"type":"VEC2"
		},
		{
			"bufferView":13,
			"componentType":5126,
			"count":9848,
			"type":"VEC4"
		},
		{
			"bufferView":14,
			"componentType":5123,
			"count":53064,
			"type":"SCALAR"
		},
		{
			"bufferView":15,
			"componentType":5126,
			"count":2259,
			"max":[
				1299.8668212890625,
				758.5531005859375,
				88.62689971923828
			],
			"min":[
				-1428.27490234375,
				40.818599700927734,
				-163.38650512695312
			],
			"type":"VEC3"
		},
		{
			"bufferView":16,
			"componentType":5126,
			"count":2259,
			"type":"VEC3"
		},
		{
			"bufferView":17,
			"componentType":5126,
			"count":2259,
			"type":"VEC2"
		},
		{
			"bufferView":18,
			"componentType":5126,
			"count":2259,
			"type":"VEC4"
		},
		{
			"bufferView":19,
			"componentType":5123,
			"count":12258,
			"type":"SCALAR"
		},
		{
			"bufferView":20,
			"componentType":5126,
			"count":1765,
			"max":[
				1746.69287109375,
				1347.19580078125,
				1039.711181640625
			],
			"min":[
				-1866.98291015625,
				-126.44249725341797,
				-1139.030517578125
			],
			"type":"VEC3"
		},
		{
			"bufferView":21,
			"componentType":5126,
			"count":1765,
			"type":"VEC3"
		},
		{
			"bufferView":22,
			"componentType":5126,
			"count":1765,
			"type":"VEC2"
		},
		{
			"bufferView":23,
			"componentType":5126,
			"count":1765,
			"type":"VEC4"
		},
		{
			"bufferView":24,
			"componentType":5123,
			"count":2388,
			"type":"SCALAR"
		},
		{
			"bufferView":25,
			"componentType":5126,
			"count":16329,
			"max":[
				921.9354858398438,
				1275.01123046875,
				245.81419372558594
			],
			"min":[
				-1052.875732421875,
				211.39549255371094,
				-318.1059875488281
			],
			"type":"VEC3"
		},
		{
			"bufferView":26,
			"componentType":5126,
			"count":16329,
			"type":"VEC3"
		},
		{
			"bufferView":27,
			"componentType":5126,
			"count":16329,
			"type":"VEC2"
		},
		{
			"bufferView":28,
			"componentType":5126,
			"count":16329,
			"type":"VEC4"
		},
		{
			"bufferView":29,
			"componentType":5123,
			"count":30504,
			"type":"SCALAR"
		},
		{
			"bufferView":30,
			"componentType":5126,
			"count":6030,
			"max":[
				1302.20166015625,
				1263.927978515625,
				574.9027099609375
			],
			"min":[
				-1429.452392578125,
				215.80360412597656,
				-645.1483154296875
			],
			"type":"VEC3"
		},
		{
			"bufferView":31,
			"componentType":5126,
			"count":6030,
			"type":"VEC3"
		},
		{
			"bufferView":32,
			"componentType":5126,
			"count":6030,
			"type":"VEC2"
		},
		{
			"bufferView":33,
			"componentType":5126,
			"count":6030,
			"type":"VEC4"
		},
		{
			"bufferView":34,
			"componentType":5123,
			"count":17628,
			"type":"SCALAR"
		},
		{
			"bufferView":35,
			"componentType":5126,
			"count":3800,
			"max":[
				925.6038208007812,
				220.99710083007812,
				246.61489868164062
			],
			"min":[
				-1057.22021484375,
				-2.460700035095215,
				-316.86920166015625
			],
			"type":"VEC3"
		},
		{
			"bufferView":36,
			"componentType":5126,
			"count":3800,
			"type":"VEC3"
		},
		{
			"bufferView":37,
			"componentType":5126,
			"count":3800,
			"type":"VEC2"
		},
		{
			"bufferView":38,
			"componentType":5126,
			"count":3800,
			"type":"VEC4"
		},
		{
			"bufferView":39,
			"componentType":5123,
			"count":8448,
			"type":"SCALAR"
		},
		{
			"bufferView":40,
			"componentType":5126,
			"count":33,
			"max":[
				1302.220947265625,
				415.5303039550781,
				574.1851806640625
			],
			"min":[
				-1432.224365234375,
				-2.506200075149536,
				-645.4310302734375
			],
			"type":"VEC3"
		},
		{
			"bufferView":41,
			"componentType":5126,
			"count":33,
			"type":"VEC3"
		},
		{
			"bufferView":42,
			"componentType":5126,
			"count":33,
			"type":"VEC2"
		},
		{
			"bufferView":43,
			"componentType":5126,
			"count":33,
			"type":"VEC4"
		},
		{
			"bufferView":44,
			"componentType":5123,
			"count":63,
			"type":"SCALAR"
		},
		{
			"bufferView":45,
			"componentType":5126,
			"count":15665,
			"max":[
				1303.27197265625,
				695.3228149414062,
				575.7255249023438
			],
			"min":[
				-1430.30517578125,
				182.6522979736328,
				-646.9678955078125
			],
			"type":"VEC3"
		},
		{
			"bufferView":46,
			"componentType":5126,
			"count":15665,
			"type":"VEC3"
		},
		{
			"bufferView":47,
			"componentType":5126,
			"count":15665,
			"type":"VEC2"
		},
		{
			"bufferView":48,
			"componentType":5126,
			"count":15665,
			"type":"VEC4"
		},
		{
			"bufferView":49,
			"componentType":5123,
			"count":21264,
			"type":"SCALAR"
		},
		{
			"bufferView":50,
			"componentType":5126,
			"count":1675,
			"max":[
				1315.5244140625,
				716.8505859375,
				605.0136108398438
			],
			"min":[
				-509.68328857421875,
				-2.2155001163482666,
				-651.5385131835938
			],
			"type":"VEC3"
		},
		{
			"bufferView":51,
			"componentType":5126,
			"count":1675,
			"type":"VEC3"
		},
		{
			"bufferView":52,
			"componentType":5126,
			"count":1675,
			"type":"VEC2"
		},
		{
			"bufferView":53,
			"componentType":5126,
			"count":1675,
			"type":"VEC4"
		},
		{
			"bufferView":54,
			"componentType":5123,
			"count":2640,
			"type":"SCALAR"
		},
		{
			"bufferView":55,
			"componentType":5126,
			"count":25461,
			"max":[
				907.4069213867188,
				699.61181640625,
				234.77340698242188
			],
			"min":[
				-1037.651611328125,
				506.6332092285156,
				-309.70550537109375
			],
			"type":"VEC3"
		},
		{
			"bufferView":56,
			"componentType":5126,
			"count":25461,
			"type":"VEC3"
		},
		{
			"bufferView":57,
			"componentType":5126,
			"count":25461,
			"type":"VEC2"
		},
		{
			"bufferView":58,
			"componentType":5126,
			"count":25461,
			"type":"VEC4"
		},
		{
			"bufferView":59,
			"componentType":5123,
			"count":69624,
			"type":"SCALAR"
		},
		{
			"bufferView":60,
			"componentType":5126,
			"count":46,
			"max":[
				-8.262900352478027,
				348.1973876953125,
				575.5051879882812
			],
			"min":[
				-119.40730285644531,
				256.7309875488281,
				568.6583862304688
			],
			"type":"VEC3"
		},
		{
			"bufferView":61,
			"componentType":5126,
			"count":46,
			"type":"VEC3"
		},
		{
			"bufferView":62,
			"componentType":5126,
			"count":46,
			"type":"VEC2"
		},
		{
			"bufferView":63,
			"componentType":5126,
			"count":46,
			"type":"VEC4"
		},
		{
			"bufferView":64,
			"componentType":5123,
			"count":54,
			"type":"SCALAR"
		},
		{
			"bufferView":65,
			"componentType":5126,
			"count":12426,
			"max":[
				830.2938842773438,
				886.1389770507812,
				209.11500549316406
			],
			"min":[
				-958.6978149414062,
				274.9595947265625,
				-289.70361328125
			],
			"type":"VEC3"
		},
		{
			"bufferView":66,
			"componentType":5126,
			"count":12426,
			"type":"VEC3"
		},
		{
			"bufferView":67,
			"componentType":5126,
			"count":12426,
			"type":"VEC2"
		},
		{
			"bufferView":68,
			"componentType":5126,
			"count":12426,
			"type":"VEC4"
		},
		{
			"bufferView":69,
			"componentType":5123,
			"count":49488,
			"type":"SCALAR"
		},
		{
			"bufferView":70,
			"componentType":5126,
			"count":12896,
			"max":[
				651.9561767578125,
				520.5938720703125,
				252.28579711914062
			],
			"min":[
				-783.794189453125,
				339.4429931640625,
				-324.5262145996094
			],
			"type":"VEC3"
		},
		{
			"bufferView":71,
			"componentType":5126,
			"count":12896,
			"type":"VEC3"
		},
		{
			"bufferView":72,
			"componentType":5126,
			"count":12896,
			"type":"VEC2"
		},
		{
			"bufferView":73,
			"componentType":5126,
			"count":12896,
			"type":"VEC4"
		},
		{
			"bufferView":74,
			"componentType":5123,
			"count":49536,
			"type":"SCALAR"
		},
		{
			"bufferView":75,
			"componentType":5126,
			"count":12916,
			"max":[
				648.8516845703125,
				520.5938720703125,
				252.28570556640625
			],
			"min":[
				-786.898681640625,
				339.4429931640625,
				-324.5262145996094
			],
			"type":"VEC3"
		},
		{
			"bufferView":76,
			"componentType":5126,
			"count":12916,
			"type":"VEC3"
		},
		{
			"bufferView":77,
			"componentType":5126,
			"count":12916,
			"type":"VEC2"
		},
		{
			"bufferView":78,
			"componentType":5126,
			"count":12916,
			"type":"VEC4"
		},
		{
			"bufferView":79,
			"componentType":5123,
			"count":49536,
			"type":"SCALAR"
		},
		{
			"bufferView":80,
			"componentType":5126,
			"count":8618,
			"max":[
				283.3501892089844,
				520.5938720703125,
				252.2855987548828
			],
			"min":[
				-418.2926025390625,
				339.4429931640625,
				-324.5262145996094
			],
			"type":"VEC3"
		},
		{
			"bufferView":81,
			"componentType":5126,
			"count":8618,
			"type":"VEC3"
		},
		{
			"bufferView":82,
			"componentType":5126,
			"count":8618,
			"type":"VEC2"
		},
		{
			"bufferView":83,
			"componentType":5126,
			"count":8618,
			"type":"VEC4"
		},
		{
			"bufferView":84,
			"componentType":5123,
			"count":33024,
			"type":"SCALAR"
		},
		{
			"bufferView":85,
			"componentType":5126,
			"count":7739,
			"max":[
				820.1740112304688,
				283.6809997558594,
				213.4824981689453
			],
			"min":[
				-577.6201782226562,
				-0.30889999866485596,
				-295.25439453125
			],
			"type":"VEC3"
		},
		{
			"bufferView":86,
			"componentType":5126,
			"count":7739,
			"type":"VEC3"
		},
		{
			"bufferView":87,
			"componentType":5126,
			"count":7739,
			"type":"VEC2"
		},
		{
			"bufferView":88,
			"componentType":5126,
			"count":7739,
			"type":"VEC4"
		},
		{
			"bufferView":89,
			"componentType":5123,
			"count":43008,
			"type":"SCALAR"
		},
		{
			"bufferView":90,
			"componentType":5126,
			"count":10248,
			"max":[
				820.1740112304688,
				283.6809997558594,
				213.4824981689453
			],
			"min":[
				-946.2379150390625,
				-0.30889999866485596,
				-295.25439453125
			],
			"type":"VEC3"
		},
		{
			"bufferView":91,
			"componentType":5126,
			"count":10248,
			"type":"VEC3"
		},
		{
			"bufferView":92,
			"componentType":5126,
			"count":10248,
			"type":"VEC2"
		},
		{
			"bufferView":93,
			"componentType":5126,
			"count":10248,
			"type":"VEC4"
		},
		{
			"bufferView":94,
			"componentType":5123,
			"count":56832,
			"type":"SCALAR"
		},
		{
			"bufferView":95,
			"componentType":5126,
			"count":7739,
			"max":[
				448.0338134765625,
				283.6809997558594,
				213.4824981689453
			],
			"min":[
				-946.2379150390625,
				-0.30889999866485596,
				-289.25689697265625
			],
			"type":"VEC3"
		},
		{
			"bufferView":96,
			"componentType":5126,
			"count":7739,
			"type":"VEC3"
		},
		{
			"bufferView":97,
			"componentType":5126,
			"count":7739,
			"type":"VEC2"
		},
		{
			"bufferView":98,
			"componentType":5126,
			"count":7739,
			"type":"VEC4"
		},
		{
			"bufferView":99,
			"componentType":5126,
			"count":92,
			"max":[
				513.3607788085938,
				214.3549041748047,
				145.12840270996094
			],
			"min":[
				-644.93310546875,
				133.72129821777344,
				-221.48719787597656
			],
			"type":"VEC3"
		},
		{
			"bufferView":100,
			"componentType":5126,
			"count":92,
			"type":"VEC3"
		},
		{
			"bufferView":101,
			"componentType":5126,
			"count":92,
			"type":"VEC2"
		},
		{
			"bufferView":102,
			"componentType":5126,
			"count":92,
			"type":"VEC4"
		},
		{
			"bufferView":103,
			"componentType":5123,
			"count":96,
			"type":"SCALAR"
		},
		{
			"bufferView":104,
			"componentType":5126,
			"count":11828,
			"max":[
				522.611572265625,
				216.9512939453125,
				170.47579956054688
			],
			"min":[
				-654.1837768554688,
				98.67289733886719,
				-246.83450317382812
			],
			"type":"VEC3"
		},
		{
			"bufferView":105,
			"componentType":5126,
			"count":11828,
			"type":"VEC3"
		},
		{
			"bufferView":106,
			"componentType":5126,
			"count":11828,
			"type":"VEC2"
		},
		{
			"bufferView":107,
			"componentType":5126,
			"count":11828,
			"type":"VEC4"
		},
		{
			"bufferView":108,
			"componentType":5123,
			"count":59484,
			"type":"SCALAR"
		},
		{
			"bufferView":109,
			"componentType":5126,
			"count":5390,
			"max":[
				1194.1705322265625,
				133.0167999267578,
				478.2618103027344
			],
			"min":[
				-1276.67333984375,
				-0.6934000253677368,
				-523.4995727539062
			],
			"type":"VEC3"
		},
		{
			"bufferView":110,
			"componentType":5126,
			"count":5390,
			"type":"VEC3"
		},
		{
			"bufferView":111,
			"componentType":5126,
			"count":5390,
			"type":"VEC2"
		},
		{
			"bufferView":112,
			"componentType":5126,
			"count":5390,
			"type":"VEC4"
		},
		{
			"bufferView":113,
			"componentType":5123,
			"count":27552,
			"type":"SCALAR"
		},
		{
			"bufferView":114,
			"componentType":5126,
			"count":1732,
			"max":[
				1299.0263671875,
				264.7611999511719,
				42.85340118408203
			],
			"min":[
				-1427.434326171875,
				79.90480041503906,
				-114.69149780273438
			],
			"type":"VEC3"
		},
		{
			"bufferView":115,
			"componentType":5126,
			"count":1732,
			"type":"VEC3"
		},
		{
			"bufferView":116,
			"componentType":5126,
			"count":1732,
			"type":"VEC2"
		},
		{
			"bufferView":117,
			"componentType":5126,
			"count":1732,
			"type":"VEC4"
		},
		{
			"bufferView":118,
			"componentType":5123,
			"count":9126,
			"type":"SCALAR"
		},
		{
			"bufferView":119,
			"componentType":5126,
			"count":12309,
			"max":[
				1799.9080810546875,
				1429.4332275390625,
				1105.426025390625
			],
			"min":[
				-1920.9459228515625,
				1280.513427734375,
				-1182.80712890625
			],
			"type":"VEC3"
		},
		{
			"bufferView":120,
			"componentType":5126,
			"count":12309,
			"type":"VEC3"
		},
		{
			"bufferView":121,
			"componentType":5126,
			"count":12309,
			"type":"VEC2"
		},
		{
			"bufferView":122,
			"componentType":5126,
			"count":12309,
			"type":"VEC4"
		},
		{
			"bufferView":123,
			"componentType":5123,
			"count":43452,
			"type":"SCALAR"
		}
	],
	"bufferViews":[
		{
			"buffer":0,
			"byteLength":289944,
			"byteOffset":0,
			"target":34962
		},
		{
			"buffer":0,
			"byteLength":289944,
			"byteOffset":289944,
			"target":34962
		},
		{
			"buffer":0,
			"byteLength":193296,
			"byteOffset":579888,
			"target":34962
		},
		{
			"buffer":0,
			"byteLength":386592,
			"byteOffset":773184,
			"target":34962
		},
		{
			"buffer":0,
			"byteLength":188616,
			"byteOffset":1159776,
			"target":34963
		},
		{
			"buffer":0,
			"byteLength":47184,
			"byteOffset":1348392,
			"target":34962
		},
		{
			"buffer":0,
			"byteLength":47184,
			"byteOffset":1395576,
			"target":34962
		},
		{
			"buffer":0,
			"byteLength":31456,
			"byteOffset":1442760,
			"target":34962
		},
		{
			"buffer":0,
			"byteLength":62912,
			"byteOffset":1474216,
			"target":34962
		},
		{
			"buffer":0,
			"byteLength":20832,
			"byteOffset":1537128,
			"target":34963
		},
		{
			"buffer":0,
			"byteLength":118176,
			"byteOffset":1557960,
			"target":34962
		},
		{
			"buffer":0,
			"byteLength":118176,
			"byteOffset":1676136,
			"target":34962
		},
		{
			"buffer":0,
			"byteLength":78784,
			"byteOffset":1794312,
			"target":34962
		},
		{
			"buffer":0,
			"byteLength":157568,
			"byteOffset":1873096,
			"target":34962
		},
		{
			"buffer":0,
			"byteLength":106128,
			"byteOffset":2030664,
			"target":34963
		},
		{
			"buffer":0,
			"byteLength":27108,
			"byteOffset":2136792,
			"target":34962
		},
		{
			"buffer":0,
			"byteLength":27108,
			"byteOffset":2163900,
			"target":34962
		},
		{
			"buffer":0,
			"byteLength":18072,
			"byteOffset":2191008,
			"target":34962
		},
		{
			"buffer":0,
			"byteLength":36144,
			"byteOffset":2209080,
			"target":34962
		},
		{
			"buffer":0,
			"byteLength":24516,
			"byteOffset":2245224,
			"target":34963
		},
		{
			"buffer":0,
			"byteLength":21180,
			"byteOffset":2269740,
			"target":34962
		},
		{
			"buffer":0,
			"byteLength":21180,
			"byteOffset":2290920,
			"target":34962
		},
		{
			"buffer":0,
			"byteLength":14120,
			"byteOffset":2312100,
			"target":34962
		},
		{
			"buffer":0,
			"byteLength":28240,
			"byteOffset":2326220,
			"target":34962
		},
		{
			"buffer":0,
			"byteLength":4776,
			"byteOffset":2354460,
			"target":34963
		},
		{
			"buffer":0,
			"byteLength":195948,
			"byteOffset":2359236,
			"target":34962
		},
		{
			"buffer":0,
			"byteLength":195948,
			"byteOffset":2555184,
			"target":34962
		},
		{
			"buffer":0,
			"byteLength":130632,
			"byteOffset":2751132,
			"target":34962
		},
		{
			"buffer":0,
			"byteLength":261264,
			"byteOffset":2881764,
			"target":34962
		},
		{
			"buffer":0,
			"byteLength":61008,
			"byteOffset":3143028,
			"target":34963
		},
		{
			"buffer":0,
			"byteLength":72360,
			"byteOffset":3204036,
			"target":34962
		},
		{
			"buffer":0,
			"byteLength":72360,
			"byteOffset":3276396,
			"target":34962
		},
		{
			"buffer":0,
			"byteLength":48240,
			"byteOffset":3348756,
			"target":34962
		},
		{
			"buffer":0,
			"byteLength":96480,
			"byteOffset":3396996,
			"target":34962
		},
		{
			"buffer":0,
			"byteLength":35256,
			"byteOffset":3493476,
			"target":34963
		},
		{
			"buffer":0,
			"byteLength":45600,
			"byteOffset":3528732,
			"target":34962
		},
		{
			"buffer":0,
			"byteLength":45600,
			"byteOffset":3574332,
			"target":34962
		},
		{
			"buffer":0,
			"byteLength":30400,
			"byteOffset":3619932,
			"target":34962
		},
		{
			"buffer":0,
			"byteLength":60800,
			"byteOffset":3650332,
			"target":34962
		},
		{
			"buffer":0,
			"byteLength":16896,
			"byteOffset":3711132,
			"target":34963
		},
		{
			"buffer":0,
			"byteLength":396,
			"byteOffset":3728028,
			"target":34962
		},
		{
			"buffer":0,
			"byteLength":396,
			"byteOffset":3728424,
			"target":34962
		},
		{
			"buffer":0,
			"byteLength":264,
			"byteOffset":3728820,
			"target":34962
		},
		{
			"buffer":0,
			"byteLength":528,
			"byteOffset":3729084,
			"target":34962
		},
		{
			"buffer":0,
			"byteLength":126,
			"byteOffset":3729612,
			"target":34963
		},
		{
			"buffer":0,
			"byteLength":187980,
			"byteOffset":3729740,
			"target":34962
		},
		{
			"buffer":0,
			"byteLength":187980,
			"byteOffset":3917720,
			"target":34962
		},
		{
			"buffer":0,
			"byteLength":125320,
			"byteOffset":4105700,
			"target":34962
		},
		{
			"buffer":0,
			"byteLength":250640,
			"byteOffset":4231020,
			"target":34962
		},
		{
			"buffer":0,
			"byteLength":42528,
			"byteOffset":4481660,
			"target":34963
		},
		{
			"buffer":0,
			"byteLength":20100,
			"byteOffset":4524188,
			"target":34962
		},
		{
			"buffer":0,
			"byteLength":20100,
			"byteOffset":4544288,
			"target":34962
		},
		{
			"buffer":0,
			"byteLength":13400,
			"byteOffset":4564388,
			"target":34962
		},
		{
			"buffer":0,
			"byteLength":26800,
			"byteOffset":4577788,
			"target":34962
		},
		{
			"buffer":0,
			"byteLength":5280,
			"byteOffset":4604588,
			"target":34963
		},
		{
			"buffer":0,
			"byteLength":305532,
			"byteOffset":4609868,
			"target":34962
		},
		{
			"buffer":0,
			"byteLength":305532,
			"byteOffset":4915400,
			"target":34962
		},
		{
			"buffer":0,
			"byteLength":203688,
			"byteOffset":5220932,
			"target":34962
		},
		{
			"buffer":0,
			"byteLength":407376,
			"byteOffset":5424620,
			"target":34962
		},
		{
			"buffer":0,
			"byteLength":139248,
			"byteOffset":5831996,
			"target":34963
		},
		{
			"buffer":0,
			"byteLength":552,
			"byteOffset":5971244,
			"target":34962
		},
		{
			"buffer":0,
			"byteLength":552,
			"byteOffset":5971796,
			"target":34962
		},
		{
			"buffer":0,
			"byteLength":368,
			"byteOffset":5972348,
			"target":34962
		},
		{
			"buffer":0,
			"byteLength":736,
			"byteOffset":5972716,
			"target":34962
		},
		{
			"buffer":0,
			"byteLength":108,
			"byteOffset":5973452,
			"target":34963
		},
		{
			"buffer":0,
			"byteLength":149112,
			"byteOffset":5973560,
			"target":34962
		},
		{
			"buffer":0,
			"byteLength":149112,
			"byteOffset":6122672,
			"target":34962
		},
		{
			"buffer":0,
			"byteLength":99408,
			"byteOffset":6271784,
			"target":34962
		},
		{
			"buffer":0,
			"byteLength":198816,
			"byteOffset":6371192,
			"target":34962
		},
		{
			"buffer":0,
			"byteLength":98976,
			"byteOffset":6570008,
			"target":34963
		},
		{
			"buffer":0,
			"byteLength":154752,
			"byteOffset":6668984,
			"target":34962
		},
		{
			"buffer":0,
			"byteLength":154752,
			"byteOffset":6823736,
			"target":34962
		},
		{
			"buffer":0,
			"byteLength":103168,
			"byteOffset":6978488,
			"target":34962
		},
		{
			"buffer":0,
			"byteLength":206336,
			"byteOffset":7081656,
			"target":34962
		},
		{
			"buffer":0,
			"byteLength":99072,
			"byteOffset":7287992,
			"target":34963
		},
		{
			"buffer":0,
			"byteLength":154992,
			"byteOffset":7387064,
			"target":34962
		},
		{
			"buffer":0,
			"byteLength":154992,
			"byteOffset":7542056,
			"target":34962
		},
		{
			"buffer":0,
			"byteLength":103328,
			"byteOffset":7697048,
			"target":34962
		},
		{
			"buffer":0,
			"byteLength":206656,
			"byteOffset":7800376,
			"target":34962
		},
		{
			"buffer":0,
			"byteLength":99072,
			"byteOffset":8007032,
			"target":34963
		},
		{
			"buffer":0,
			"byteLength":103416,
			"byteOffset":8106104,
			"target":34962
		},
		{
			"buffer":0,
			"byteLength":103416,
			"byteOffset":8209520,
			"target":34962
		},
		{
			"buffer":0,
			"byteLength":68944,
			"byteOffset":8312936,
			"target":34962
		},
		{
			"buffer":0,
			"byteLength":137888,
			"byteOffset":8381880,
			"target":34962
		},
		{
			"buffer":0,
			"byteLength":66048,
			"byteOffset":8519768,
			"target":34963
		},
		{
			"buffer":0,
			"byteLength":92868,
			"byteOffset":8585816,
			"target":34962
		},
		{
			"buffer":0,
			"byteLength":92868,
			"byteOffset":8678684,
			"target":34962
		},
		{
			"buffer":0,
			"byteLength":61912,
			"byteOffset":8771552,
			"target":34962
		},
		{
			"buffer":0,
			"byteLength":123824,
			"byteOffset":8833464,
			"target":34962
		},
		{
			"buffer":0,
			"byteLength":86016,
			"byteOffset":8957288,
			"target":34963
		},
		{
			"buffer":0,
			"byteLength":122976,
			"byteOffset":9043304,
			"target":34962
		},
		{
			"buffer":0,
			"byteLength":122976,
			"byteOffset":9166280,
			"target":34962
		},
		{
			"buffer":0,
			"byteLength":81984,
			"byteOffset":9289256,
			"target":34962
		},
		{
			"buffer":0,
			"byteLength":163968,
			"byteOffset":9371240,
			"target":34962
		},
		{
			"buffer":0,
			"byteLength":113664,
			"byteOffset":9535208,
			"target":34963
		},
		{
			"buffer":0,
			"byteLength":92868,
			"byteOffset":9648872,
			"target":34962
		},
		{
			"buffer":0,
			"byteLength":92868,
			"byteOffset":9741740,
			"target":34962
		},
		{
			"buffer":0,
			"byteLength":61912,
			"byteOffset":9834608,
			"target":34962
		},
		{
			"buffer":0,
			"byteLength":123824,
			"byteOffset":9896520,
			"target":34962
		},
		{
			"buffer":0,
			"byteLength":1104,
			"byteOffset":10020344,
			"target":34962
		},
		{
			"buffer":0,
			"byteLength":1104,
			"byteOffset":10021448,
			"target":34962
		},
		{
			"buffer":0,
			"byteLength":736,
			"byteOffset":10022552,
			"target":34962
		},
		{
			"buffer":0,
			"byteLength":1472,
			"byteOffset":10023288,
			"target":34962
		},
		{
			"buffer":0,
			"byteLength":192,
			"byteOffset":10024760,
			"target":34963
		},
		{
			"buffer":0,
			"byteLength":141936,
			"byteOffset":10024952,
			"target":34962
		},
		{
			"buffer":0,
			"byteLength":141936,
			"byteOffset":10166888,
			"target":34962
		},
		{
			"buffer":0,
			"byteLength":94624,
			"byteOffset":10308824,
			"target":34962
		},
		{
			"buffer":0,
			"byteLength":189248,
			"byteOffset":10403448,
			"target":34962
		},
		{
			"buffer":0,
			"byteLength":118968,
			"byteOffset":10592696,
			"target":34963
		},
		{
			"buffer":0,
			"byteLength":64680,
			"byteOffset":10711664,
			"target":34962
		},
		{
			"buffer":0,
			"byteLength":64680,
			"byteOffset":10776344,
			"target":34962
		},
		{
			"buffer":0,
			"byteLength":43120,
			"byteOffset":10841024,
			"target":34962
		},
		{
			"buffer":0,
			"byteLength":86240,
			"byteOffset":10884144,
			"target":34962
		},
		{
			"buffer":0,
			"byteLength":55104,
			"byteOffset":10970384,
			"target":34963
		},
		{
			"buffer":0,
			"byteLength":20784,
			"byteOffset":11025488,
			"target":34962
		},
		{
			"buffer":0,
			"byteLength":20784,
			"byteOffset":11046272,
			"target":34962
		},
		{
			"buffer":0,
			"byteLength":13856,
			"byteOffset":11067056,
			"target":34962
		},
		{
			"buffer":0,
			"byteLength":27712,
			"byteOffset":11080912,
			"target":34962
		},
		{
			"buffer":0,
			"byteLength":18252,
			"byteOffset":11108624,
			"target":34963
		},
		{
			"buffer":0,
			"byteLength":147708,
			"byteOffset":11126876,
			"target":34962
		},
		{
			"buffer":0,
			"byteLength":147708,
			"byteOffset":11274584,
			"target":34962
		},
		{
			"buffer":0,
			"byteLength":98472,
			"byteOffset":11422292,
			"target":34962
		},
		{
			"buffer":0,
			"byteLength":196944,
			"byteOffset":11520764,
			"target":34962
		},
		{
			"buffer":0,
			"byteLength":86904,
			"byteOffset":11717708,
			"target":34963
		}
	],
	"samplers":[
		{
			"magFilter":9729,
			"minFilter":9987
		}
	],
	"buffers":[
		{
			"byteLength":11804612,
			"uri":"Sponza.bin"
		}
	]
}
